
                                        <svg xmlns="http://www.w3.org/2000/svg"
                                            xmlns:xlink="http://www.w3.org/1999/xlink" version="1.1"
                                            x="0" y="0" viewBox="0 0 100 99.999"
                                            enable-background="new 0 0 100 100" xml:space="preserve"
                                            height="82.96432832220036" width="82.9651579737801"
                                            class="icon-icon-0" data-fill-palette-color="accent"
                                            id="icon-0"><path fill="#e45858" d="M95.833 29.146C95.286 29.146 94.684 29.25 94.058 29.392 97.687 26.337 100 21.772 100 16.666 100 7.477 92.523 0 83.333 0 77.973 0 73.21 2.554 70.158 6.498A16.6 16.6 0 0 0 67.422 11.706 12.4 12.4 0 0 1 72.512 10.436C72.649 10.432 72.781 10.415 72.917 10.415 79.81 10.415 85.417 16.022 85.417 22.915 85.417 25.185 84.8 27.31 83.738 29.145 83.38 29.763 82.936 30.325 82.48 30.87A7 7 0 0 1 82.234 30.849C74.694 30.255 60.665 29.144 50 29.144S25.305 30.255 17.765 30.849C15.202 31.053 12.988 31.227 12.5 31.227 11.796 31.227 10.242 30.708 8.993 30.291 7.221 29.701 5.546 29.144 4.167 29.144 1.353 29.146 0 30.473 0 60.396S1.353 91.646 4.167 91.646C5.546 91.646 7.221 91.088 8.993 90.499 10.242 90.082 11.796 89.562 12.5 89.562 12.988 89.562 15.202 89.738 17.765 89.941 21.669 90.249 27.317 90.694 33.333 91.051 33.634 90.917 33.935 90.777 34.242 90.651 33.788 90.837 33.349 91.044 32.904 91.243 32.731 91.32 32.556 91.393 32.385 91.473H32.422A42 42 0 0 0 20.351 99.999H26.505A37.43 37.43 0 0 1 44.791 92.07V80.544A20.7 20.7 0 0 1 40.624 78.982C33.833 75.547 29.166 68.525 29.166 60.395 29.166 48.89 38.492 39.562 49.999 39.562S70.832 48.89 70.832 60.395C70.832 68.525 66.165 75.547 59.374 78.982A20.7 20.7 0 0 1 55.207 80.544V92.07A37.4 37.4 0 0 1 73.493 99.999H79.645A42 42 0 0 0 67.575 91.473H67.677C67.446 91.365 67.197 91.285 66.963 91.18 66.861 91.135 66.757 91.096 66.655 91.054 72.676 90.694 78.327 90.25 82.233 89.941 84.796 89.738 87.01 89.562 87.499 89.562 88.203 89.562 89.757 90.082 91.007 90.499 92.778 91.089 94.453 91.646 95.832 91.646 98.646 91.646 99.999 90.319 99.999 60.396 100 30.473 98.647 29.146 95.833 29.146M76.02 6.551A12.4 12.4 0 0 1 83.333 4.166C90.227 4.166 95.833 9.773 95.833 16.666 95.833 21.585 92.971 25.838 88.828 27.876 89.318 26.308 89.583 24.642 89.583 22.916 89.583 14.788 83.73 8.01 76.02 6.551M94.759 87.297C94.019 87.109 93.112 86.809 92.326 86.544 90.554 85.954 88.879 85.397 87.5 85.397 86.873 85.397 85.241 85.523 81.905 85.788 76.511 86.215 67.771 86.902 59.375 87.257V83.558C68.524 79.838 75 70.866 75 60.396 75 46.61 63.784 35.396 50 35.396 36.214 35.396 25 46.61 25 60.396 25 70.866 31.474 79.837 40.625 83.556V87.255C32.229 86.901 23.488 86.213 18.095 85.786 14.759 85.521 13.127 85.395 12.5 85.395 11.121 85.395 9.446 85.953 7.674 86.542 6.888 86.807 5.981 87.107 5.24 87.295 4.699 84.939 4.166 78.123 4.166 60.395 4.166 42.666 4.699 35.851 5.24 33.495 5.981 33.682 6.888 33.983 7.674 34.248 9.446 34.838 11.12 35.395 12.5 35.395 13.126 35.395 14.758 35.269 18.095 35.004 25.574 34.412 39.498 33.311 50 33.311S74.426 34.412 81.905 35.004C85.241 35.268 86.873 35.395 87.5 35.395 88.879 35.395 90.554 34.837 92.326 34.248 93.111 33.983 94.018 33.682 94.759 33.495 95.3 35.851 95.833 42.666 95.833 60.395 95.833 78.125 95.3 84.94 94.759 87.297" data-fill-palette-color="accent"></path></svg>
                
            
        
    
