<svg xmlns="http://www.w3.org/2000/svg" version="1.1" xmlns:xlink="http://www.w3.org/1999/xlink" xmlns:svgjs="http://svgjs.dev/svgjs" width="1500" height="1500" viewBox="0 0 1500 1500"><rect width="1500" height="1500" fill="#fffffe"></rect><g transform="matrix(0.6666666666666666,0,0,0.6666666666666666,249.39420298103238,655.5054547592791)"><svg viewBox="0 0 396 74" data-background-color="#fffffe" preserveAspectRatio="xMidYMid meet" height="280" width="1500" xmlns="http://www.w3.org/2000/svg" xmlns:xlink="http://www.w3.org/1999/xlink"><g id="tight-bounds" transform="matrix(1,0,0,1,0.24010438048890137,0.4603375775714653)"><svg viewBox="0 0 395.52 73.07932484485708" height="73.07932484485708" width="395.52"><g><svg viewBox="0 0 487.35849462456997 90.04811322959517" height="73.07932484485708" width="395.52"><g><svg viewBox="0 0 395.52 90.04811322959517" height="90.04811322959517" width="395.52"><g id="textblocktransform"><svg viewBox="0 0 395.52 90.04811322959517" height="90.04811322959517" width="395.52" id="textblock"><g><svg viewBox="0 0 395.52 90.04811322959517" height="90.04811322959517" width="395.52"><path d="M394.594 19.314C392.735 9.967 387.435 7.368 387.435 7.368 371.165-2.259 350.86-0.184 332.619 1.199 300.414 1.255 268.339 3.312 236.208 4.415 168.767 4.583 100.749 1.816 33.643 8.639 27.339 10.733-6.54 9.051 1.121 20.51 3.129 25.277 10.456 30.567 10.232 34.942 11.236 35.708 12.631 33.951 13.226 35.054 15.309 38.026 18.711 36.624 21.501 38.381 17.614 43.074 20.403 46.981 23.062 51.075 18.377 52.14 12.371 51.635 9.675 55.169 9.396 57.73 7.89 57.244 6.235 57.131 5.026 57.057 2.59 57.337 2.999 58.141 4.394 60.889-1.594 62.478 2.162 65.17-0.422 68.086 3.948 70.61 3.353 73.769 3.278 74.405 3.687 74.947 4.338 75.096 7.22 75.9 3.018 77.47 3.464 79.172 33.029 90.799 65.104 82.761 95.394 88.107 103.259 84.368 97.346 89.435 100.489 88.649 102.943 87.733 104.728 91.528 107.499 89.378 107.927 88.762 107.276 87.303 108.8 87.584 109.6 87.733 110.307 87.696 110.418 86.836 110.586 85.546 109.117 86.35 108.726 85.677 112.947 82.275 111.906 90.369 115.866 90.033 115.68 89.042 114.528 87.621 116.889 87.808 119.232 86.387 119.306 85.21 121.389 88.406 121.463 89.098 121.835 89.584 122.43 89.921 128.938 86.443 135.409 91.154 142.233 89.584 146.417 87.864 150.433 90.519 154.672 89.864 156.16 89.341 157.666 88.406 159.098 89.977 176.632 90.313 195.319 88.911 211.943 90.033 256.364 87.939 303.836 90.893 350.674 88.126 361.719 87.06 373.192 85.546 383.958 84.331 383.958 84.331 392.679 81.004 392.679 66.048S394.538 52.963 394.817 41.055C395.096 29.147 396.398 28.661 394.538 19.314Z" opacity="1" fill="#7f5af0" data-fill-palette-color="tertiary"></path><g transform="matrix(1,0,0,1,55.76832,26.230666666666668)"><svg width="283.98335999999995" viewBox="1.66 -41.19 409.46 54.2" height="37.58677989626184" data-palette-color="#fffffe"><path d="M27.71-9.01L27.71-9.01Q27.71-7.15 27.17-5.71 26.64-4.27 25.71-3.21 24.78-2.15 23.51-1.43 22.24-0.71 20.79-0.27 19.34 0.17 17.75 0.37 16.16 0.56 14.6 0.56L14.6 0.56Q12.5 0.56 10.89 0.29 9.28 0.02 7.81-0.57 6.35-1.17 4.9-2.12 3.44-3.08 1.66-4.44L1.66-4.44 6.47-8.37Q7.13-7.13 8.22-6.12 9.3-5.1 10.47-4.37 11.65-3.64 12.74-3.25 13.84-2.86 14.53-2.86L14.53-2.86Q15.09-2.86 15.8-2.89 16.5-2.93 17.24-3.04 17.97-3.15 18.68-3.37 19.38-3.59 19.93-3.97 20.48-4.35 20.81-4.92 21.14-5.49 21.14-6.3L21.14-6.3Q21.14-7.13 20.72-7.75 20.29-8.37 19.6-8.84 18.92-9.3 18.04-9.62 17.16-9.94 16.27-10.18 15.38-10.42 14.55-10.61 13.72-10.79 13.11-10.96L13.11-10.96Q11.99-11.28 10.74-11.61 9.5-11.94 8.28-12.37 7.06-12.79 5.94-13.38 4.83-13.96 3.99-14.78 3.15-15.6 2.65-16.71 2.15-17.82 2.15-19.31L2.15-19.31Q2.15-22.05 3.23-23.89 4.32-25.73 6.1-26.84 7.89-27.95 10.16-28.42 12.43-28.88 14.77-28.88L14.77-28.88Q16.38-28.88 18.16-28.55 19.95-28.22 21.63-27.58 23.32-26.93 24.78-26 26.25-25.07 27.22-23.88L27.22-23.88 22.41-19.92Q21.88-21.39 21.01-22.44 20.14-23.49 19.13-24.16 18.12-24.83 17.05-25.15 15.99-25.46 15.09-25.46L15.09-25.46Q14.21-25.46 13.11-25.39 12.01-25.32 11.05-24.98 10.08-24.63 9.41-23.94 8.74-23.24 8.74-22.02L8.74-22.02Q8.74-21.14 9.14-20.52 9.55-19.9 10.21-19.45 10.86-18.99 11.71-18.69 12.55-18.38 13.43-18.15 14.31-17.92 15.14-17.75 15.97-17.58 16.63-17.38L16.63-17.38Q17.75-17.07 19.01-16.74 20.26-16.41 21.48-15.98 22.71-15.55 23.84-14.98 24.98-14.4 25.83-13.57 26.68-12.74 27.2-11.63 27.71-10.52 27.71-9.01ZM41.16-32.62L41.16 0 32.91 0 32.91-41.19 36.08-41.19 41.16-32.62ZM54.83-13.38L54.83-13.38Q56.34-13.04 57.86-12.84 59.37-12.65 60.91-12.65L60.91-12.65Q62.52-12.65 63.9-12.95 65.28-13.26 66.29-13.98 67.3-14.7 67.89-15.89 68.48-17.09 68.48-18.87L68.48-18.87Q68.48-20.31 68.09-21.51 67.7-22.71 66.93-23.56 66.16-24.41 65.03-24.89 63.91-25.37 62.42-25.37L62.42-25.37Q61.03-25.37 59.92-24.85 58.81-24.34 57.97-23.47 57.12-22.61 56.53-21.46 55.93-20.31 55.54-19.07 55.15-17.82 54.98-16.55 54.8-15.28 54.8-14.16L54.8-14.16Q54.8-13.96 54.8-13.77 54.8-13.57 54.83-13.38ZM75.17-18.95L75.17-18.95Q75.17-17.21 74.6-15.86 74.04-14.5 73.08-13.48 72.11-12.45 70.84-11.74 69.58-11.04 68.13-10.58 66.69-10.13 65.17-9.94 63.64-9.74 62.2-9.74L62.2-9.74Q60.37-9.74 58.59-10 56.81-10.25 55.07-10.82L55.07-10.82Q55.34-9.2 55.93-7.75 56.51-6.3 57.49-5.21 58.47-4.13 59.89-3.49 61.32-2.86 63.28-2.86L63.28-2.86Q64.57-2.86 65.74-3.25 66.91-3.64 67.89-4.35 68.87-5.05 69.61-6.03 70.36-7.01 70.82-8.2L70.82-8.2 74.38-6.88Q73.58-4.96 72.18-3.55 70.77-2.15 69-1.23 67.23-0.32 65.24 0.12 63.25 0.56 61.3 0.56L61.3 0.56Q58.08 0.56 55.34-0.52 52.61-1.61 50.63-3.56 48.65-5.52 47.53-8.23 46.41-10.94 46.41-14.16L46.41-14.16Q46.41-17.38 47.53-20.09 48.65-22.8 50.63-24.76 52.61-26.71 55.34-27.8 58.08-28.88 61.3-28.88L61.3-28.88Q62.86-28.88 64.5-28.66 66.13-28.44 67.67-27.97 69.21-27.49 70.58-26.73 71.94-25.98 72.96-24.87 73.97-23.75 74.57-22.29 75.17-20.83 75.17-18.95ZM87.1-13.38L87.1-13.38Q88.62-13.04 90.13-12.84 91.64-12.65 93.18-12.65L93.18-12.65Q94.79-12.65 96.17-12.95 97.55-13.26 98.56-13.98 99.58-14.7 100.16-15.89 100.75-17.09 100.75-18.87L100.75-18.87Q100.75-20.31 100.36-21.51 99.97-22.71 99.2-23.56 98.43-24.41 97.31-24.89 96.18-25.37 94.69-25.37L94.69-25.37Q93.3-25.37 92.19-24.85 91.08-24.34 90.24-23.47 89.4-22.61 88.8-21.46 88.2-20.31 87.81-19.07 87.42-17.82 87.25-16.55 87.08-15.28 87.08-14.16L87.08-14.16Q87.08-13.96 87.08-13.77 87.08-13.57 87.1-13.38ZM107.44-18.95L107.44-18.95Q107.44-17.21 106.88-15.86 106.32-14.5 105.35-13.48 104.39-12.45 103.12-11.74 101.85-11.04 100.41-10.58 98.97-10.13 97.44-9.94 95.92-9.74 94.47-9.74L94.47-9.74Q92.64-9.74 90.86-10 89.08-10.25 87.35-10.82L87.35-10.82Q87.61-9.2 88.2-7.75 88.79-6.3 89.76-5.21 90.74-4.13 92.17-3.49 93.6-2.86 95.55-2.86L95.55-2.86Q96.84-2.86 98.01-3.25 99.19-3.64 100.16-4.35 101.14-5.05 101.88-6.03 102.63-7.01 103.09-8.2L103.09-8.2 106.66-6.88Q105.85-4.96 104.45-3.55 103.04-2.15 101.27-1.23 99.5-0.32 97.51 0.12 95.52 0.56 93.57 0.56L93.57 0.56Q90.35 0.56 87.61-0.52 84.88-1.61 82.9-3.56 80.93-5.52 79.8-8.23 78.68-10.94 78.68-14.16L78.68-14.16Q78.68-17.38 79.8-20.09 80.93-22.8 82.9-24.76 84.88-26.71 87.61-27.8 90.35-28.88 93.57-28.88L93.57-28.88Q95.13-28.88 96.77-28.66 98.41-28.44 99.94-27.97 101.48-27.49 102.85-26.73 104.22-25.98 105.23-24.87 106.24-23.75 106.84-22.29 107.44-20.83 107.44-18.95ZM142.57-14.16L142.57-14.16Q142.57-11.08 141.64-8.4 140.71-5.71 138.95-3.72 137.2-1.73 134.66-0.59 132.12 0.56 128.9 0.56L128.9 0.56Q126.43 0.56 124.37-0.4 122.3-1.37 120.84-3.37L120.84-3.37 120.84 13.01 112.59 13.01 112.59-28.2 115.76-28.2 119.42-22.07Q119.96-23.61 120.9-24.87 121.84-26.12 123.07-27.01 124.31-27.91 125.78-28.39 127.26-28.88 128.9-28.88L128.9-28.88Q132.12-28.88 134.66-27.73 137.2-26.59 138.95-24.6 140.71-22.61 141.64-19.92 142.57-17.24 142.57-14.16ZM134.19-14.16L134.19-14.16Q134.19-15.23 134.08-16.44 133.97-17.65 133.71-18.85 133.44-20.04 132.96-21.14 132.49-22.24 131.75-23.08 131.02-23.93 129.98-24.43 128.95-24.93 127.58-24.93L127.58-24.93Q126.16-24.93 125.12-24.44 124.09-23.95 123.34-23.11 122.6-22.27 122.12-21.18 121.65-20.09 121.38-18.9 121.11-17.7 121-16.48 120.89-15.26 120.89-14.16L120.89-14.16Q120.89-13.18 121.03-12 121.18-10.82 121.5-9.62 121.82-8.42 122.33-7.3 122.84-6.18 123.59-5.3 124.33-4.42 125.32-3.89 126.31-3.37 127.58-3.37L127.58-3.37Q128.97-3.37 129.99-3.87 131.02-4.37 131.75-5.21 132.49-6.05 132.96-7.15 133.44-8.25 133.71-9.45 133.97-10.64 134.08-11.87 134.19-13.09 134.19-14.16ZM186-25.71L186-25.71 181.36-18.02Q181.06-18.99 180.6-20.21 180.14-21.44 179.45-22.5 178.77-23.56 177.82-24.28 176.86-25 175.62-25L175.62-25Q174.47-25 173.63-24.41 172.79-23.83 172.2-22.89 171.62-21.95 171.24-20.76 170.86-19.58 170.65-18.37 170.44-17.16 170.37-16.05 170.3-14.94 170.3-14.14L170.3-14.14 170.3 0 162.02 0 162.02-28.2 165.19-28.2 168.54-21.63Q169.22-23.22 170.1-24.55 170.98-25.88 172.13-26.84 173.28-27.81 174.73-28.34 176.18-28.88 178.01-28.88L178.01-28.88Q178.96-28.88 180.14-28.72 181.31-28.56 182.43-28.19 183.55-27.81 184.51-27.2 185.46-26.59 186-25.71ZM195.49-13.38L195.49-13.38Q197-13.04 198.52-12.84 200.03-12.65 201.57-12.65L201.57-12.65Q203.18-12.65 204.56-12.95 205.94-13.26 206.95-13.98 207.97-14.7 208.55-15.89 209.14-17.09 209.14-18.87L209.14-18.87Q209.14-20.31 208.75-21.51 208.36-22.71 207.59-23.56 206.82-24.41 205.7-24.89 204.57-25.37 203.08-25.37L203.08-25.37Q201.69-25.37 200.58-24.85 199.47-24.34 198.63-23.47 197.79-22.61 197.19-21.46 196.59-20.31 196.2-19.07 195.81-17.82 195.64-16.55 195.47-15.28 195.47-14.16L195.47-14.16Q195.47-13.96 195.47-13.77 195.47-13.57 195.49-13.38ZM215.83-18.95L215.83-18.95Q215.83-17.21 215.27-15.86 214.7-14.5 213.74-13.48 212.78-12.45 211.51-11.74 210.24-11.04 208.8-10.58 207.36-10.13 205.83-9.94 204.3-9.74 202.86-9.74L202.86-9.74Q201.03-9.74 199.25-10 197.47-10.25 195.73-10.82L195.73-10.82Q196-9.2 196.59-7.75 197.17-6.3 198.15-5.21 199.13-4.13 200.56-3.49 201.98-2.86 203.94-2.86L203.94-2.86Q205.23-2.86 206.4-3.25 207.58-3.64 208.55-4.35 209.53-5.05 210.27-6.03 211.02-7.01 211.48-8.2L211.48-8.2 215.05-6.88Q214.24-4.96 212.84-3.55 211.43-2.15 209.66-1.23 207.89-0.32 205.9 0.12 203.91 0.56 201.96 0.56L201.96 0.56Q198.74 0.56 196-0.52 193.27-1.61 191.29-3.56 189.31-5.52 188.19-8.23 187.07-10.94 187.07-14.16L187.07-14.16Q187.07-17.38 188.19-20.09 189.31-22.8 191.29-24.76 193.27-26.71 196-27.8 198.74-28.88 201.96-28.88L201.96-28.88Q203.52-28.88 205.16-28.66 206.79-28.44 208.33-27.97 209.87-27.49 211.24-26.73 212.6-25.98 213.62-24.87 214.63-23.75 215.23-22.29 215.83-20.83 215.83-18.95ZM264.6-16.46L264.6-16.46Q264.6-13.55 263.92-10.4 263.24-7.25 262-4.26 260.77-1.27 259.04 1.39 257.3 4.05 255.18 6.01L255.18 6.01 252.08 4.32Q252.79 3.05 253.37 1.46 253.96-0.12 254.45-1.88 254.94-3.64 255.3-5.49 255.67-7.35 255.92-9.19 256.18-11.04 256.3-12.77 256.43-14.5 256.43-16.02L256.43-16.02Q256.43-16.87 256.38-17.87 256.33-18.87 256.17-19.87 256.01-20.87 255.69-21.79 255.38-22.71 254.83-23.43 254.28-24.15 253.46-24.57 252.64-25 251.49-25L251.49-25Q250.37-25 249.58-24.4 248.78-23.8 248.22-22.85 247.66-21.9 247.33-20.7 247-19.51 246.83-18.3 246.66-17.09 246.6-15.99 246.54-14.89 246.54-14.14L246.54-14.14 246.54 0 238.31 0 238.31-13.13Q238.31-13.99 238.33-15.2 238.36-16.41 238.27-17.72 238.19-19.04 237.96-20.35 237.72-21.66 237.22-22.68 236.72-23.71 235.87-24.35 235.01-25 233.72-25L233.72-25Q232.62-25 231.88-24.39 231.13-23.78 230.63-22.81 230.13-21.85 229.85-20.64 229.57-19.43 229.44-18.23 229.3-17.02 229.28-15.93 229.25-14.84 229.25-14.14L229.25-14.14 229.25 0 220.98 0 220.98-28.2 224.15-28.2 227.18-21.63Q228.2-25.05 230.41-26.97 232.62-28.88 236.28-28.88L236.28-28.88Q239.58-28.88 241.75-27.51 243.93-26.15 245.17-23.07L245.17-23.07Q245.88-24.41 246.75-25.49 247.61-26.56 248.67-27.32 249.74-28.08 251.03-28.48 252.32-28.88 253.89-28.88L253.89-28.88Q256.77-28.88 258.81-27.94 260.84-27 262.14-25.34 263.43-23.68 264.02-21.4 264.6-19.12 264.6-16.46ZM278.76-35.01L278.76-35.01Q278.76-34.08 278.41-33.25 278.05-32.42 277.44-31.81 276.83-31.2 276-30.85 275.17-30.49 274.25-30.49L274.25-30.49Q273.32-30.49 272.5-30.85 271.68-31.2 271.07-31.81 270.46-32.42 270.11-33.25 269.75-34.08 269.75-35.01L269.75-35.01Q269.75-35.94 270.11-36.76 270.46-37.57 271.07-38.18 271.68-38.79 272.5-39.15 273.32-39.5 274.25-39.5L274.25-39.5Q275.17-39.5 276-39.15 276.83-38.79 277.44-38.18 278.05-37.57 278.41-36.76 278.76-35.94 278.76-35.01ZM278.4-28.17L278.4 0 270.12 0 270.12-28.17 278.4-28.17ZM314.14-16.16L314.14-16.16Q314.14-13.31 313.44-10.21 312.74-7.1 311.5-4.13 310.25-1.15 308.52 1.48 306.79 4.1 304.71 6.01L304.71 6.01 301.61 4.32Q302.27 3.1 302.86 1.59 303.44 0.07 303.92-1.62 304.39-3.32 304.77-5.13 305.15-6.93 305.41-8.7 305.66-10.47 305.8-12.15 305.93-13.82 305.93-15.26L305.93-15.26Q305.93-16.21 305.86-17.3 305.79-18.38 305.55-19.47 305.32-20.56 304.93-21.56 304.54-22.56 303.89-23.32 303.25-24.07 302.33-24.54 301.42-25 300.17-25L300.17-25Q298.95-25 298-24.45 297.05-23.9 296.31-23.01 295.58-22.12 295.06-20.97 294.53-19.82 294.2-18.62 293.87-17.41 293.73-16.24 293.58-15.06 293.58-14.14L293.58-14.14 293.58 0 285.3 0 285.3-28.2 288.48-28.2 292.26-21.63Q292.94-23.27 293.97-24.61 294.99-25.95 296.29-26.9 297.58-27.86 299.16-28.37 300.73-28.88 302.56-28.88L302.56-28.88Q305.49-28.88 307.67-27.93 309.84-26.98 311.28-25.28 312.72-23.58 313.43-21.25 314.14-18.92 314.14-16.16ZM347.99-38.57L347.99 0 344.82 0 341.16-6.13Q340.62-4.59 339.68-3.34 338.74-2.1 337.51-1.21 336.28-0.32 334.8 0.17 333.32 0.66 331.69 0.66L331.69 0.66Q328.46 0.66 325.92-0.49 323.39-1.64 321.63-3.63 319.87-5.62 318.94-8.3 318.01-10.99 318.01-14.06L318.01-14.06Q318.01-17.14 318.94-19.82 319.87-22.51 321.63-24.49 323.39-26.46 325.92-27.61 328.46-28.76 331.69-28.76L331.69-28.76Q334.15-28.76 336.22-27.81 338.28-26.86 339.74-24.83L339.74-24.83 339.74-38.57 347.99-38.57ZM339.69-14.06L339.69-14.06Q339.69-15.04 339.55-16.21 339.4-17.38 339.08-18.58 338.77-19.78 338.25-20.9 337.74-22.02 337-22.9 336.25-23.78 335.26-24.3 334.27-24.83 333-24.83L333-24.83Q331.61-24.83 330.59-24.33 329.56-23.83 328.83-22.99 328.1-22.14 327.62-21.04 327.15-19.95 326.88-18.75 326.61-17.55 326.5-16.35 326.39-15.14 326.39-14.06L326.39-14.06Q326.39-12.99 326.5-11.78 326.61-10.57 326.88-9.38 327.15-8.18 327.62-7.07 328.1-5.96 328.83-5.11 329.56-4.27 330.59-3.77 331.61-3.27 333-3.27L333-3.27Q334.4-3.27 335.45-3.76 336.5-4.25 337.24-5.09 337.99-5.93 338.46-7.02 338.94-8.11 339.21-9.31 339.47-10.52 339.58-11.74 339.69-12.96 339.69-14.06ZM361.66-13.38L361.66-13.38Q363.18-13.04 364.69-12.84 366.21-12.65 367.74-12.65L367.74-12.65Q369.35-12.65 370.73-12.95 372.11-13.26 373.13-13.98 374.14-14.7 374.73-15.89 375.31-17.09 375.31-18.87L375.31-18.87Q375.31-20.31 374.92-21.51 374.53-22.71 373.76-23.56 372.99-24.41 371.87-24.89 370.75-25.37 369.26-25.37L369.26-25.37Q367.87-25.37 366.75-24.85 365.64-24.34 364.8-23.47 363.96-22.61 363.36-21.46 362.76-20.31 362.37-19.07 361.98-17.82 361.81-16.55 361.64-15.28 361.64-14.16L361.64-14.16Q361.64-13.96 361.64-13.77 361.64-13.57 361.66-13.38ZM382-18.95L382-18.95Q382-17.21 381.44-15.86 380.88-14.5 379.91-13.48 378.95-12.45 377.68-11.74 376.41-11.04 374.97-10.58 373.53-10.13 372-9.94 370.48-9.74 369.04-9.74L369.04-9.74Q367.21-9.74 365.42-10 363.64-10.25 361.91-10.82L361.91-10.82Q362.18-9.2 362.76-7.75 363.35-6.3 364.33-5.21 365.3-4.13 366.73-3.49 368.16-2.86 370.11-2.86L370.11-2.86Q371.41-2.86 372.58-3.25 373.75-3.64 374.73-4.35 375.7-5.05 376.45-6.03 377.19-7.01 377.66-8.2L377.66-8.2 381.22-6.88Q380.41-4.96 379.01-3.55 377.61-2.15 375.84-1.23 374.07-0.32 372.08 0.12 370.09 0.56 368.13 0.56L368.13 0.56Q364.91 0.56 362.18-0.52 359.44-1.61 357.47-3.56 355.49-5.52 354.36-8.23 353.24-10.94 353.24-14.16L353.24-14.16Q353.24-17.38 354.36-20.09 355.49-22.8 357.47-24.76 359.44-26.71 362.18-27.8 364.91-28.88 368.13-28.88L368.13-28.88Q369.7-28.88 371.33-28.66 372.97-28.44 374.51-27.97 376.04-27.49 377.41-26.73 378.78-25.98 379.79-24.87 380.8-23.75 381.4-22.29 382-20.83 382-18.95ZM411.12-25.71L411.12-25.71 406.49-18.02Q406.19-18.99 405.73-20.21 405.27-21.44 404.58-22.5 403.9-23.56 402.95-24.28 401.99-25 400.75-25L400.75-25Q399.6-25 398.76-24.41 397.92-23.83 397.33-22.89 396.74-21.95 396.37-20.76 395.99-19.58 395.78-18.37 395.57-17.16 395.5-16.05 395.43-14.94 395.43-14.14L395.43-14.14 395.43 0 387.15 0 387.15-28.2 390.32-28.2 393.67-21.63Q394.35-23.22 395.23-24.55 396.11-25.88 397.26-26.84 398.41-27.81 399.86-28.34 401.31-28.88 403.14-28.88L403.14-28.88Q404.09-28.88 405.27-28.72 406.44-28.56 407.56-28.19 408.68-27.81 409.64-27.2 410.59-26.59 411.12-25.71Z" opacity="1" transform="matrix(1,0,0,1,0,0)" fill="#fffffe" class="wordmark-text-0" data-fill-palette-color="quaternary" id="text-0"></path></svg></g></svg></g></svg></g></svg></g><g transform="matrix(1,0,0,1,404.3933366507899,3.5418924536974075)"><svg viewBox="0 0 82.9651579737801 82.96432832220036" height="82.96432832220036" width="82.9651579737801"><g><svg xmlns="http://www.w3.org/2000/svg" xmlns:xlink="http://www.w3.org/1999/xlink" version="1.1" x="0" y="0" viewBox="0 0 100 99.999" enable-background="new 0 0 100 100" xml:space="preserve" height="82.96432832220036" width="82.9651579737801" class="icon-icon-0" data-fill-palette-color="accent" id="icon-0"><path fill="#2cb67d" d="M95.833 29.146C95.286 29.146 94.684 29.25 94.058 29.392 97.687 26.337 100 21.772 100 16.666 100 7.477 92.523 0 83.333 0 77.973 0 73.21 2.554 70.158 6.498A16.6 16.6 0 0 0 67.422 11.706 12.4 12.4 0 0 1 72.512 10.436C72.649 10.432 72.781 10.415 72.917 10.415 79.81 10.415 85.417 16.022 85.417 22.915 85.417 25.185 84.8 27.31 83.738 29.145 83.38 29.763 82.936 30.325 82.48 30.87A7 7 0 0 1 82.234 30.849C74.694 30.255 60.665 29.144 50 29.144S25.305 30.255 17.765 30.849C15.202 31.053 12.988 31.227 12.5 31.227 11.796 31.227 10.242 30.708 8.993 30.291 7.221 29.701 5.546 29.144 4.167 29.144 1.353 29.146 0 30.473 0 60.396S1.353 91.646 4.167 91.646C5.546 91.646 7.221 91.088 8.993 90.499 10.242 90.082 11.796 89.562 12.5 89.562 12.988 89.562 15.202 89.738 17.765 89.941 21.669 90.249 27.317 90.694 33.333 91.051 33.634 90.917 33.935 90.777 34.242 90.651 33.788 90.837 33.349 91.044 32.904 91.243 32.731 91.32 32.556 91.393 32.385 91.473H32.422A42 42 0 0 0 20.351 99.999H26.505A37.43 37.43 0 0 1 44.791 92.07V80.544A20.7 20.7 0 0 1 40.624 78.982C33.833 75.547 29.166 68.525 29.166 60.395 29.166 48.89 38.492 39.562 49.999 39.562S70.832 48.89 70.832 60.395C70.832 68.525 66.165 75.547 59.374 78.982A20.7 20.7 0 0 1 55.207 80.544V92.07A37.4 37.4 0 0 1 73.493 99.999H79.645A42 42 0 0 0 67.575 91.473H67.677C67.446 91.365 67.197 91.285 66.963 91.18 66.861 91.135 66.757 91.096 66.655 91.054 72.676 90.694 78.327 90.25 82.233 89.941 84.796 89.738 87.01 89.562 87.499 89.562 88.203 89.562 89.757 90.082 91.007 90.499 92.778 91.089 94.453 91.646 95.832 91.646 98.646 91.646 99.999 90.319 99.999 60.396 100 30.473 98.647 29.146 95.833 29.146M76.02 6.551A12.4 12.4 0 0 1 83.333 4.166C90.227 4.166 95.833 9.773 95.833 16.666 95.833 21.585 92.971 25.838 88.828 27.876 89.318 26.308 89.583 24.642 89.583 22.916 89.583 14.788 83.73 8.01 76.02 6.551M94.759 87.297C94.019 87.109 93.112 86.809 92.326 86.544 90.554 85.954 88.879 85.397 87.5 85.397 86.873 85.397 85.241 85.523 81.905 85.788 76.511 86.215 67.771 86.902 59.375 87.257V83.558C68.524 79.838 75 70.866 75 60.396 75 46.61 63.784 35.396 50 35.396 36.214 35.396 25 46.61 25 60.396 25 70.866 31.474 79.837 40.625 83.556V87.255C32.229 86.901 23.488 86.213 18.095 85.786 14.759 85.521 13.127 85.395 12.5 85.395 11.121 85.395 9.446 85.953 7.674 86.542 6.888 86.807 5.981 87.107 5.24 87.295 4.699 84.939 4.166 78.123 4.166 60.395 4.166 42.666 4.699 35.851 5.24 33.495 5.981 33.682 6.888 33.983 7.674 34.248 9.446 34.838 11.12 35.395 12.5 35.395 13.126 35.395 14.758 35.269 18.095 35.004 25.574 34.412 39.498 33.311 50 33.311S74.426 34.412 81.905 35.004C85.241 35.268 86.873 35.395 87.5 35.395 88.879 35.395 90.554 34.837 92.326 34.248 93.111 33.983 94.018 33.682 94.759 33.495 95.3 35.851 95.833 42.666 95.833 60.395 95.833 78.125 95.3 84.94 94.759 87.297" data-fill-palette-color="accent"></path></svg></g></svg></g></svg></g><defs></defs></svg><rect width="395.52" height="73.07932484485708" fill="none" stroke="none" visibility="hidden"></rect></g></svg></g></svg>